<svg width="541" height="627" viewBox="0 0 541 627" fill="none" xmlns="http://www.w3.org/2000/svg">
<g filter="url(#filter0_i_7_25)">
<path d="M0.5 300.648C19.8575 160.028 83.7254 32.3092 111.405 103.974C139.085 175.639 268.927 735.368 173.307 662.467C77.6862 589.566 239.675 491.077 281.509 381.985C323.344 272.893 453.626 -115.346 281.509 40.3406C109.392 196.027 398.82 7.34889 410.345 412.875C421.871 818.401 448.866 -0.0645646 507.92 86.4258C566.974 172.916 520.432 264.349 498.411 259.406C476.391 254.464 459.547 207.216 484.399 192.068C509.25 176.919 515.94 260.978 514.5 282.722" stroke="#E5E5E5" stroke-width="7"/>
<path d="M-2 305.274C17.3575 164.654 60.7254 32.3092 88.405 103.974C116.085 175.639 245.927 735.368 150.307 662.467C54.6862 589.566 216.675 491.077 258.509 381.985C300.344 272.893 430.626 -115.346 258.509 40.3406C86.392 196.027 375.82 7.34889 387.345 412.875C398.871 818.401 425.866 -0.0645646 484.92 86.4258C543.974 172.916 497.432 264.349 475.411 259.406C453.391 254.464 436.547 207.216 461.399 192.068C486.25 176.919 516.44 263.87 515 285.613" stroke="#97E1E0" stroke-width="7"/>
<path d="M-18.6667 294.257C-18.6667 304.566 -10.3093 312.923 0 312.923C10.3093 312.923 18.6667 304.566 18.6667 294.257C18.6667 283.947 10.3093 275.59 0 275.59C-10.3093 275.59 -18.6667 283.947 -18.6667 294.257ZM517.974 294.257L525.925 254.632L487.634 267.559L517.974 294.257ZM3.4673 294.734C13.1625 224.304 21.8145 159.073 31.4775 120.356C33.8891 110.694 36.3322 102.818 38.8195 96.9822C41.3922 90.9467 43.7311 87.7956 45.5432 86.6722C46.2826 86.2138 46.7898 86.18 47.2468 86.2844C47.8179 86.4148 48.7563 86.8755 50.0345 88.2193C52.6437 90.9622 55.7119 96.3593 59.1401 105.235L65.67 102.713C62.1783 93.6727 58.7113 87.1846 55.1064 83.3948C53.2776 81.4722 51.1891 80.0046 48.8058 79.4602C46.3083 78.8897 43.9333 79.4342 41.8549 80.7227C38.0313 83.0931 34.992 88.1098 32.3801 94.2374C29.6829 100.565 27.1351 108.848 24.6859 118.661C14.9057 157.847 6.19493 223.589 -3.4673 293.779L3.4673 294.734ZM59.1401 105.235C65.9599 122.892 79.2149 171.078 93.7958 232.532C108.354 293.891 124.175 368.223 136.144 438.024C148.125 507.897 156.202 572.984 155.368 615.967C155.16 626.694 154.397 635.953 153.03 643.516C151.652 651.133 149.707 656.758 147.308 660.421C144.983 663.971 142.435 665.422 139.582 665.497C136.457 665.579 132.149 664.044 126.429 659.683L122.185 665.25C128.417 670.002 134.3 672.638 139.765 672.495C145.502 672.344 149.942 669.175 153.164 664.257C156.311 659.451 158.471 652.761 159.918 644.761C161.374 636.706 162.154 627.048 162.366 616.103C163.215 572.401 155.03 506.746 143.043 436.841C131.044 366.864 115.191 292.384 100.607 230.916C86.0452 169.544 72.6901 120.889 65.67 102.713L59.1401 105.235ZM126.429 659.683C114.814 650.828 107.303 641.732 102.955 632.471C98.6187 623.236 97.3363 613.643 98.4684 603.62C100.754 583.387 112.864 561.461 129.712 537.829C146.597 514.147 167.508 489.689 187.292 463.702C206.911 437.931 225.133 410.996 235.777 383.238L229.241 380.732C218.968 407.52 201.254 433.806 181.722 459.462C162.355 484.901 140.901 510.077 124.012 533.766C107.087 557.506 94.014 580.689 91.5126 602.835C90.2512 614.002 91.6745 624.916 96.6185 635.446C101.551 645.951 109.894 655.88 122.185 665.25L126.429 659.683ZM235.777 383.238C256.712 328.646 299.841 204.06 316.187 112.486C320.275 89.5792 322.713 68.6096 322.677 51.2504C322.642 34.0637 320.193 19.733 313.872 10.6953C310.63 6.05901 306.338 2.7763 300.911 1.3271C295.549 -0.104738 289.417 0.342293 282.583 2.51109C269.015 6.81666 251.767 18.2016 230.161 37.7449L234.857 42.9362C256.28 23.558 272.612 13.019 284.7 9.18321C290.694 7.28131 295.409 7.10328 299.105 8.09011C302.735 9.05959 305.71 11.2393 308.136 14.7073C313.151 21.8781 315.642 34.3233 315.677 51.2648C315.712 68.0338 313.349 88.5447 309.296 111.256C293.071 202.152 250.141 326.232 229.241 380.732L235.777 383.238ZM230.161 37.7449C208.644 57.2078 194.16 71.4467 185.437 82.2103C181.077 87.5904 178.02 92.2654 176.271 96.4248C174.509 100.617 173.973 104.54 175.05 108.192C176.123 111.829 178.625 114.613 181.742 116.881C184.837 119.133 188.799 121.066 193.243 122.931C197.699 124.801 202.892 126.703 208.477 128.809C214.098 130.929 220.205 133.288 226.653 136.122C252.359 147.421 283.591 166.325 309.179 207.331C334.815 248.414 354.977 311.991 357.847 412.974L364.844 412.775C361.951 310.996 341.613 246.086 315.118 203.626C288.575 161.089 256.047 141.396 229.47 129.714C222.847 126.803 216.6 124.391 210.947 122.259C205.256 120.113 200.253 118.281 195.952 116.476C191.639 114.666 188.283 112.984 185.861 111.221C183.461 109.475 182.246 107.845 181.764 106.212C181.287 104.594 181.357 102.389 182.724 99.1377C184.105 95.8538 186.7 91.77 190.875 86.6176C199.223 76.3162 213.345 62.3948 234.857 42.9362L230.161 37.7449ZM357.847 412.974C359.287 463.647 360.971 495.364 362.949 512.14C363.444 516.34 363.967 519.689 364.528 522.202C364.809 523.457 365.113 524.569 365.454 525.506C365.773 526.382 366.215 527.371 366.886 528.172C367.582 529.002 369.062 530.192 371.141 529.755C372.814 529.404 373.775 528.167 374.198 527.543C375.151 526.141 375.887 524.016 376.523 521.719C379.146 512.23 382.017 491.944 385.188 465.404C388.373 438.744 391.898 405.427 395.789 369.667C403.578 298.079 412.835 216.695 423.82 158.623C429.331 129.49 435.21 106.619 441.398 93.7727C442.932 90.5894 444.423 88.1556 445.843 86.4345C447.283 84.6889 448.464 83.9007 449.323 83.6155C450.029 83.3809 450.763 83.394 451.765 83.9562C452.892 84.5883 454.34 85.9247 456.03 88.3994L461.811 84.4522C459.809 81.5213 457.629 79.2195 455.189 77.851C452.625 76.4126 449.854 76.0627 447.115 76.9726C444.529 77.8319 442.327 79.6959 440.443 81.9801C438.538 84.2889 436.765 87.2626 435.092 90.7346C428.456 104.509 422.447 128.223 416.942 157.322C405.897 215.714 396.612 297.384 388.83 368.91C384.935 404.707 381.417 437.962 378.237 464.574C375.043 491.305 372.227 510.989 369.776 519.853C369.142 522.143 368.649 523.256 368.408 523.61C368.235 523.864 368.609 523.134 369.704 522.905C371.205 522.59 372.117 523.515 372.252 523.676C372.364 523.81 372.256 523.727 372.033 523.114C371.831 522.561 371.603 521.764 371.36 520.675C370.874 518.5 370.384 515.421 369.901 511.321C367.965 494.899 366.285 463.484 364.844 412.775L357.847 412.974ZM456.03 88.3994C484.955 130.763 487.977 174.245 481.145 206.478C477.722 222.624 471.85 235.831 465.635 244.603C462.521 248.999 459.414 252.15 456.611 254.036C453.772 255.946 451.63 256.317 450.178 255.991L448.645 262.822C452.698 263.731 456.827 262.327 460.518 259.844C464.244 257.338 467.924 253.482 471.347 248.649C478.208 238.965 484.409 224.834 487.992 207.929C495.173 174.058 491.94 128.579 461.811 84.4522L456.03 88.3994ZM450.178 255.991C445.715 254.99 441.164 251.737 437.171 246.744C433.208 241.789 430.021 235.39 428.208 228.654C424.51 214.922 426.782 201.419 437.22 195.056L433.577 189.079C419.163 197.865 417.432 215.56 421.448 230.475C423.492 238.063 427.091 245.348 431.704 251.116C436.286 256.845 442.097 261.352 448.645 262.822L450.178 255.991ZM437.22 195.056C440.138 193.278 444.324 193.505 450.195 196.798C455.978 200.042 462.512 205.813 469.224 213.235C482.611 228.035 496.02 248.62 504.774 265.988L511.025 262.838C502.044 245.019 488.298 223.887 474.416 208.539C467.494 200.887 460.365 194.476 453.619 190.693C446.962 186.959 439.755 185.313 433.577 189.079L437.22 195.056Z" fill="#6CBFC9"/>
</g>
<defs>
<filter id="filter0_i_7_25" x="-18.6667" y="0.499817" width="558.88" height="676" filterUnits="userSpaceOnUse" color-interpolation-filters="sRGB">
<feFlood flood-opacity="0" result="BackgroundImageFix"/>
<feBlend mode="normal" in="SourceGraphic" in2="BackgroundImageFix" result="shape"/>
<feColorMatrix in="SourceAlpha" type="matrix" values="0 0 0 0 0 0 0 0 0 0 0 0 0 0 0 0 0 0 127 0" result="hardAlpha"/>
<feOffset dy="4"/>
<feGaussianBlur stdDeviation="2"/>
<feComposite in2="hardAlpha" operator="arithmetic" k2="-1" k3="1"/>
<feColorMatrix type="matrix" values="0 0 0 0 0 0 0 0 0 0 0 0 0 0 0 0 0 0 0.25 0"/>
<feBlend mode="normal" in2="shape" result="effect1_innerShadow_7_25"/>
</filter>
</defs>
</svg>
