<svg width="52" height="52" viewBox="0 0 52 52" fill="none" xmlns="http://www.w3.org/2000/svg">
<path d="M26 27.625C19.1317 27.625 13.5417 22.035 13.5417 15.1667C13.5417 8.29834 19.1317 2.70834 26 2.70834C32.8684 2.70834 38.4584 8.29834 38.4584 15.1667C38.4584 22.035 32.8684 27.625 26 27.625ZM26 5.95834C20.93 5.95834 16.7917 10.0967 16.7917 15.1667C16.7917 20.2367 20.93 24.375 26 24.375C31.07 24.375 35.2084 20.2367 35.2084 15.1667C35.2084 10.0967 31.07 5.95834 26 5.95834Z" fill="#292D32"/>
<path d="M44.612 49.2917C43.7237 49.2917 42.987 48.555 42.987 47.6667C42.987 40.1917 35.3603 34.125 26.0003 34.125C16.6403 34.125 9.01367 40.1917 9.01367 47.6667C9.01367 48.555 8.277 49.2917 7.38867 49.2917C6.50034 49.2917 5.76367 48.555 5.76367 47.6667C5.76367 38.415 14.842 30.875 26.0003 30.875C37.1587 30.875 46.237 38.415 46.237 47.6667C46.237 48.555 45.5003 49.2917 44.612 49.2917Z" fill="#292D32"/>
</svg>
